<svg xmlns="http://www.w3.org/2000/svg" viewBox="0 0 200 200" width="200" height="200">
  <defs>
    <linearGradient id="shieldGradient" x1="0%" y1="0%" x2="0%" y2="100%">
      <stop offset="0%" style="stop-color:#42b883;stop-opacity:1" />
      <stop offset="100%" style="stop-color:#35495e;stop-opacity:1" />
    </linearGradient>
    <linearGradient id="gateGradient" x1="0%" y1="0%" x2="100%" y2="0%">
      <stop offset="0%" style="stop-color:#dd0031;stop-opacity:1" />
      <stop offset="100%" style="stop-color:#c3002f;stop-opacity:1" />
    </linearGradient>
  </defs>
  
  <!-- Shield/Protection Background -->
  <path d="M 100 20 L 180 50 L 180 120 Q 180 160 100 180 Q 20 160 20 120 L 20 50 Z" 
        fill="url(#shieldGradient)" 
        stroke="#2c3e50" 
        stroke-width="2"/>
  
  <!-- Gate/Barrier (Angular-inspired) -->
  <rect x="60" y="60" width="80" height="8" rx="4" fill="url(#gateGradient)" opacity="0.9"/>
  <rect x="60" y="80" width="80" height="8" rx="4" fill="url(#gateGradient)" opacity="0.9"/>
  <rect x="60" y="100" width="80" height="8" rx="4" fill="url(#gateGradient)" opacity="0.9"/>
  
  <!-- Angular "A" Symbol -->
  <path d="M 100 75 L 115 110 L 85 110 Z" 
        fill="white" 
        opacity="0.95"/>
  <path d="M 100 85 L 108 105 L 92 105 Z" 
        fill="url(#gateGradient)"/>
  
  <!-- Security Lock Icon -->
  <circle cx="100" cy="130" r="12" fill="white" opacity="0.9"/>
  <rect x="95" y="130" width="10" height="8" rx="2" fill="url(#gateGradient)"/>
  <path d="M 95 130 L 95 125 L 100 120 L 105 125 L 105 130" 
        stroke="url(#gateGradient)" 
        stroke-width="2" 
        fill="none"/>
</svg>

